<svg width="92" height="24" viewBox="0 0 92 24" fill="none" xmlns="http://www.w3.org/2000/svg">
<path d="M80.1181 12.4706C82.4538 12.4706 84.3534 10.571 84.3534 8.23528C84.3534 5.89952 82.4538 4 80.1181 4C77.7823 4 75.8828 5.89952 75.8828 8.23528C75.8828 10.571 77.7823 12.4706 80.1181 12.4706ZM80.1181 6.11764C81.286 6.11764 82.2357 7.0674 82.2357 8.23528C82.2357 9.40316 81.286 10.3529 80.1181 10.3529C78.9502 10.3529 78.0005 9.40316 78.0005 8.23528C78.0005 7.0674 78.9502 6.11764 80.1181 6.11764Z" fill="black"/>
<path d="M85.9156 11.8252C85.4882 11.4311 84.7973 11.4311 84.3699 11.8252C82.0262 13.986 78.2111 13.986 75.8663 11.8252C75.4389 11.4311 74.748 11.4311 74.3206 11.8252C73.8931 12.2192 73.8931 12.8562 74.3206 13.2513C75.6804 14.5051 77.4044 15.2196 79.1818 15.4061L76.0652 18.2795C75.6378 18.6736 75.6378 19.3105 76.0652 19.7046C76.4927 20.0987 77.1835 20.0987 77.611 19.7046L80.1176 17.3936L82.6242 19.7046C82.8373 19.9011 83.1172 19.9999 83.397 19.9999C83.6769 19.9999 83.9567 19.9011 84.1699 19.7046C84.5973 19.3105 84.5973 18.6736 84.1699 18.2795L81.0533 15.4061C82.8308 15.2196 84.5547 14.5051 85.9145 13.2513C86.342 12.8572 86.342 12.2192 85.9156 11.8252Z" fill="black"/>
<path fill-rule="evenodd" clip-rule="evenodd" d="M45.3425 17.4535H46.3493C46.3493 17.4535 46.6534 17.4202 46.8087 17.2528C46.9516 17.0991 46.947 16.8105 46.947 16.8105C46.947 16.8105 46.9273 15.4596 47.5543 15.2607C48.1724 15.0647 48.9661 16.5663 49.8074 17.1437C50.4435 17.5807 50.9269 17.4849 50.9269 17.4849L53.1763 17.4535C53.1763 17.4535 54.353 17.3811 53.795 16.4559C53.7493 16.3802 53.4701 15.7715 52.1226 14.5207C50.7122 13.2116 50.9011 13.4234 52.6 11.1589C53.6347 9.77983 54.0484 8.93789 53.9192 8.57728C53.7959 8.23383 53.035 8.32461 53.035 8.32461L50.5023 8.34039C50.5023 8.34039 50.3145 8.31478 50.1753 8.39801C50.0392 8.47964 49.9516 8.66989 49.9516 8.66989C49.9516 8.66989 49.5508 9.73707 49.0162 10.6446C47.8884 12.5597 47.4375 12.6608 47.2532 12.5419C46.8244 12.2647 46.9315 11.4285 46.9315 10.8344C46.9315 8.97859 47.2129 8.20479 46.3834 8.00448C46.108 7.93794 45.9054 7.89404 45.2014 7.88695C44.2977 7.87757 43.5328 7.88969 43.0997 8.10189C42.8116 8.24298 42.5894 8.55739 42.7247 8.57546C42.8921 8.59786 43.2712 8.67767 43.4722 8.95138C43.7318 9.30443 43.7226 10.0974 43.7226 10.0974C43.7226 10.0974 43.8717 12.2821 43.3744 12.5535C43.033 12.7396 42.5647 12.3596 41.5592 10.6222C41.0441 9.73226 40.6551 8.74855 40.6551 8.74855C40.6551 8.74855 40.5801 8.56471 40.4463 8.46638C40.284 8.34725 40.0571 8.30929 40.0571 8.30929L37.6505 8.32507C37.6505 8.32507 37.2892 8.33513 37.1565 8.49222C37.0386 8.63194 37.1472 8.92097 37.1472 8.92097C37.1472 8.92097 39.0314 13.3291 41.1648 15.5506C43.121 17.5873 45.3425 17.4535 45.3425 17.4535Z" fill="black"/>
<path d="M17.9732 6.04684L3.33988 11.1234C2.8659 11.2878 2.89462 11.8933 3.38252 12.0216L7.10099 12.9991L8.48873 16.9192C8.63369 17.3287 9.21657 17.4529 9.55399 17.1461L11.4765 15.3986L15.2487 17.8636C15.7104 18.1652 16.3678 17.9411 16.485 17.4421L18.9834 6.80846C19.1057 6.28759 18.5301 5.85363 17.9732 6.04684ZM16.1385 8.40672L9.34146 13.7577C9.27371 13.811 9.23059 13.8848 9.22051 13.9649L8.95882 16.0358C8.95027 16.1034 8.8441 16.1123 8.82144 16.0474L7.74476 12.9589C7.69544 12.8174 7.75974 12.6642 7.90105 12.5862L15.9277 8.15443C16.1123 8.05243 16.3013 8.27865 16.1385 8.40672Z" fill="black"/>
</svg>
