<svg width="124" height="125" viewBox="0 0 124 125" fill="none" xmlns="http://www.w3.org/2000/svg">
<path d="M105.925 105.925C81.725 130.125 42.525 130.125 18.225 105.925C-6.075 81.625 -6.075 42.425 18.225 18.225C42.425 -6.075 81.625 -6.075 105.925 18.225C130.025 42.425 130.025 81.625 105.925 105.925Z" fill="#B3D9F3"/>
<path d="M79.3254 40.0249L78.7254 67.4249C78.7254 67.4249 75.3254 71.6249 61.9254 71.6249C48.7254 71.6249 46.6254 66.8249 46.6254 66.8249L46.1254 41.6249C45.5254 41.7249 46.8254 41.6249 46.1254 41.6249C39.0254 41.7249 32.0254 36.0249 32.0254 28.9249C32.0254 21.8249 37.8254 16.0249 44.9254 16.0249C46.7254 16.0249 48.5254 16.4249 50.1254 17.1249C52.2254 12.9249 56.7254 10.0249 61.7254 10.0249C66.5254 10.0249 70.4254 12.7249 72.7254 16.6249C74.8254 15.0249 77.4254 14.2249 80.3254 14.2249C87.4254 14.2249 93.2254 19.9249 93.2254 27.1249C93.3254 34.2249 86.5254 40.0249 79.3254 40.0249C79.9254 40.0249 78.9254 40.0249 79.3254 40.0249Z" fill="white"/>
<path d="M27.7266 56.725C27.7266 55.625 27.6266 54.725 27.5266 54.225C27.3266 53.025 26.7266 51.925 25.7266 51.025C24.7266 50.125 23.6266 49.725 22.2266 49.725C20.8266 49.725 19.5266 50.225 18.5266 51.225C17.4266 50.225 16.2266 49.725 14.8266 49.725C13.5266 49.725 12.2266 50.225 11.3266 51.025C10.4266 51.825 9.72656 52.825 9.42656 54.225C9.32656 54.825 9.22656 55.625 9.22656 56.725V65.325C9.22656 65.825 9.62656 66.025 9.92656 66.025C10.4266 66.025 10.6266 65.625 10.6266 65.325V56.425C10.6266 54.825 10.9266 53.525 11.6266 52.525C12.3266 51.425 13.4266 50.925 14.9266 50.925C16.0266 50.925 16.9266 51.325 17.7266 52.125C17.0266 53.325 16.7266 54.625 16.7266 56.425V65.225C16.7266 65.625 17.0266 65.925 17.4266 65.925C17.9266 65.925 18.1266 65.525 18.1266 65.225V56.325C18.1266 55.025 18.3266 54.025 18.6266 53.325C18.9266 54.125 19.1266 55.325 19.1266 56.725V65.325C19.1266 65.725 19.4266 66.025 19.8266 66.025C20.3266 66.025 20.5266 65.625 20.5266 65.325V56.125C20.5266 54.325 20.2266 53.025 19.5266 52.025C20.2266 51.325 21.1266 50.925 22.2266 50.925C23.2266 50.925 24.1266 51.225 24.8266 51.825C25.5266 52.325 26.0266 53.125 26.3266 54.125C26.5266 54.725 26.5266 55.425 26.5266 56.425V65.325C26.5266 65.725 26.8266 66.025 27.2266 66.025C27.7266 66.025 27.9266 65.625 27.9266 65.325L27.8266 64.825V56.725H27.7266Z" fill="black"/>
<path d="M43.9266 52.225C42.3266 50.625 40.3266 49.825 38.0266 49.825C35.7266 49.825 33.7266 50.625 32.1266 52.225C30.5266 53.825 29.7266 55.825 29.7266 58.125C29.7266 60.425 30.5266 62.425 32.2266 64.025C33.9266 65.625 35.9266 66.425 38.2266 66.425C39.9266 66.425 41.5266 65.925 42.8266 65.025V65.225C42.8266 65.925 43.2266 66.125 43.5266 66.125C43.8266 66.125 44.2266 65.825 44.2266 65.225V63.925C45.8266 62.225 46.6266 60.325 46.6266 58.125C46.4266 55.725 45.5266 53.725 43.9266 52.225ZM42.6266 58.225V63.425C41.2266 64.625 39.7266 65.225 38.0266 65.225C36.1266 65.225 34.4266 64.525 33.1266 63.125C31.7266 61.825 31.1266 60.225 31.1266 58.225C31.1266 56.225 31.8266 54.625 33.2266 53.225C34.6266 51.825 36.2266 51.125 38.2266 51.125C40.1266 51.125 41.8266 51.825 43.1266 53.225C44.4266 54.625 45.2266 56.225 45.2266 58.125C45.2266 59.525 44.8266 60.725 44.1266 61.825V58.225C43.9266 57.225 42.6266 57.225 42.6266 58.225Z" fill="black"/>
<path d="M55.427 66.425C57.327 66.425 59.127 65.825 60.727 64.525C61.127 64.225 61.427 64.025 61.627 63.725H61.727V63.625C61.827 63.525 61.827 63.425 61.827 63.225C61.827 62.925 61.627 62.625 61.227 62.625H60.827L60.727 62.825V63.025C60.027 63.625 59.227 64.225 58.427 64.625C57.527 65.025 56.527 65.325 55.627 65.325C53.627 65.325 52.027 64.625 50.727 63.225C49.327 61.825 48.627 60.225 48.627 58.225C48.627 56.325 49.327 54.625 50.727 53.325C52.027 51.925 53.627 51.325 55.627 51.325C57.527 51.325 59.227 52.025 60.627 53.425L60.927 53.625H61.327L61.427 53.525C61.627 53.425 61.727 53.225 61.727 53.025V52.825L61.627 52.725C61.627 52.725 61.627 52.625 61.527 52.625C61.427 52.525 61.427 52.425 61.327 52.425C59.827 50.825 57.827 49.925 55.427 49.925C53.127 49.925 51.127 50.725 49.527 52.325C47.927 53.925 47.127 55.925 47.127 58.225C47.127 60.425 47.927 62.425 49.527 64.125C51.227 65.625 53.227 66.425 55.427 66.425Z" fill="black"/>
<path d="M76.0262 52.225C74.4262 50.625 72.4262 49.825 70.1262 49.825C67.8262 49.825 65.8262 50.625 64.2262 52.225C62.6262 53.825 61.8262 55.825 61.8262 58.125C61.8262 60.425 62.6262 62.425 64.2262 64.025C65.9262 65.625 67.9262 66.425 70.2262 66.425C71.9262 66.425 73.5262 65.925 74.8262 65.025V65.225C74.8262 65.925 75.2262 66.125 75.5262 66.125C75.8262 66.125 76.2262 65.825 76.2262 65.225V63.925C77.8262 62.225 78.6262 60.325 78.6262 58.125C78.5262 55.625 77.7262 53.725 76.0262 52.225ZM74.7262 58.225V63.425C73.3262 64.625 71.8262 65.225 70.1262 65.225C68.2262 65.225 66.5262 64.525 65.1262 63.125C63.7262 61.825 63.1262 60.225 63.1262 58.225C63.1262 56.225 63.8262 54.625 65.2262 53.225C66.6262 51.825 68.2262 51.125 70.2262 51.125C72.1262 51.125 73.8262 51.825 75.1262 53.225C76.5262 54.625 77.2262 56.225 77.2262 58.125C77.2262 59.525 76.8262 60.825 76.1262 61.925V58.325C76.0262 57.225 74.7262 57.225 74.7262 58.225Z" fill="black"/>
<path d="M80.6258 66.125C81.1258 66.125 81.3258 65.725 81.3258 65.425V58.925C81.3258 57.225 81.4258 56.225 81.6258 55.525C81.9258 54.425 82.5258 53.525 83.3258 52.825C84.1258 52.125 85.0258 51.725 86.0258 51.425C86.5258 51.425 86.7258 51.025 86.7258 50.725C86.7258 50.225 86.4258 50.125 86.2258 50.025H86.1258H86.0258C85.5258 50.025 84.9258 50.225 84.2258 50.625C83.0258 51.225 82.0258 52.025 81.3258 53.125C81.3258 52.525 81.3258 51.725 81.3258 50.825C81.3258 49.825 79.9258 49.825 79.9258 50.825V65.425C79.9258 65.825 80.2258 66.125 80.6258 66.125Z" fill="black"/>
<path d="M101.227 52.225C99.6273 50.625 97.6273 49.825 95.3273 49.825C93.0273 49.825 91.0273 50.625 89.4273 52.225C87.8273 53.825 87.0273 55.825 87.0273 58.125C87.0273 60.425 87.8273 62.425 89.4273 64.025C91.1273 65.625 93.1273 66.425 95.4273 66.425C97.7273 66.425 99.7273 65.625 101.327 63.925C102.927 62.225 103.727 60.225 103.727 57.925C103.727 55.725 102.927 53.725 101.227 52.225ZM95.3273 51.125C97.2273 51.125 98.9273 51.825 100.227 53.225C101.627 54.625 102.327 56.225 102.327 58.125C102.327 60.125 101.627 61.825 100.127 63.125C98.8273 64.525 97.2273 65.125 95.2273 65.125C93.3273 65.125 91.6273 64.425 90.3273 63.025C88.9273 61.625 88.2273 60.025 88.2273 58.125C88.2273 56.125 88.9273 54.525 90.3273 53.125C91.6273 51.725 93.3273 51.125 95.3273 51.125Z" fill="black"/>
<path d="M116.727 54.025C116.527 52.825 115.927 51.825 114.827 50.925C113.827 50.125 112.627 49.625 111.327 49.625C110.327 49.625 109.427 49.825 108.627 50.325C108.027 50.725 107.427 51.125 107.027 51.725V50.725C107.027 49.725 105.627 49.725 105.627 50.725V65.325C105.627 65.825 106.027 66.025 106.327 66.025C106.827 66.025 107.027 65.625 107.027 65.325V57.025C107.027 56.125 107.027 55.325 107.127 54.925C107.327 53.725 107.727 52.825 108.427 52.125C109.227 51.425 110.227 51.025 111.227 51.025C112.027 51.025 112.827 51.225 113.427 51.625C114.327 52.125 114.927 52.925 115.127 53.925C115.327 54.525 115.327 55.625 115.327 57.025V65.325C115.327 65.725 115.627 66.025 116.027 66.025C116.227 66.025 116.427 65.925 116.527 65.825H116.827V56.325C116.927 55.425 116.827 54.625 116.727 54.025Z" fill="black"/>
<path d="M40.5273 85.325C39.8273 85.325 39.7273 85.725 39.7273 86.025C39.7273 86.525 40.1273 86.725 40.4273 86.725C41.2273 86.725 41.8273 86.925 42.5273 87.325C43.8273 88.025 44.5273 89.225 44.5273 90.725C44.5273 91.825 44.1273 92.725 43.3273 93.525C42.5273 94.325 41.6273 94.725 40.5273 94.725C38.9273 94.725 37.8273 94.025 36.9273 92.625C36.6273 92.225 36.4273 91.625 36.4273 90.925C36.4273 90.425 36.1273 90.125 35.7273 90.125C35.2273 90.125 35.0273 90.525 35.0273 90.825C35.0273 92.225 35.6273 93.525 36.7273 94.425C37.7273 95.425 39.0273 95.925 40.4273 95.925C41.9273 95.925 43.2273 95.425 44.2273 94.325C45.2273 93.325 45.8273 92.025 45.8273 90.525C45.8273 89.025 45.3273 87.825 44.3273 86.825C43.3273 85.925 42.0273 85.325 40.5273 85.325Z" fill="black"/>
<path d="M40.227 81.125C41.527 81.125 42.427 81.625 43.027 82.725C43.127 82.925 43.327 83.325 43.427 83.725C43.427 84.225 43.727 84.525 44.127 84.525C44.527 84.525 44.827 84.225 44.827 83.825C44.827 82.625 44.227 81.625 43.227 81.025C42.327 80.225 41.327 79.825 40.127 79.825C38.927 79.825 37.827 80.225 36.927 81.125C36.127 82.125 35.627 83.125 35.627 84.325C35.627 85.525 36.027 86.625 36.927 87.525C37.727 88.425 38.827 88.925 40.027 88.925C40.527 88.925 40.827 88.625 40.827 88.225C40.827 87.825 40.527 87.525 40.127 87.525C39.227 87.525 38.527 87.225 37.927 86.625C37.327 86.025 37.027 85.225 37.027 84.325C37.027 83.425 37.327 82.625 37.927 82.025C38.727 81.425 39.427 81.125 40.227 81.125Z" fill="black"/>
<path d="M57.9273 86.525C57.9273 85.425 57.8273 84.625 57.7273 84.125C57.4273 82.825 56.8273 81.825 55.9273 81.125C54.9273 80.225 53.9273 79.825 52.6273 79.825C51.7273 79.825 50.8273 80.025 50.0273 80.525C49.3273 80.825 48.8273 81.325 48.4273 81.825V75.825C48.4273 74.825 47.0273 74.825 47.0273 75.825V94.925C47.0273 95.425 47.4273 95.625 47.7273 95.625C48.2273 95.625 48.4273 95.225 48.4273 94.925V86.925C48.4273 86.325 48.4273 85.825 48.5273 85.425C48.5273 85.125 48.5273 84.925 48.5273 84.825C48.7273 83.725 49.1273 82.825 49.8273 82.125C50.6273 81.425 51.4273 81.125 52.6273 81.125C53.4273 81.125 54.2273 81.325 54.8273 81.725C55.7273 82.325 56.2273 83.025 56.4273 83.925C56.6273 84.525 56.6273 85.525 56.6273 86.925V94.925C56.6273 95.325 56.9273 95.625 57.3273 95.625C57.8273 95.625 58.0273 95.225 58.0273 94.925L57.9273 94.425V86.525Z" fill="black"/>
<path d="M73.3273 82.125C71.7273 80.525 69.8273 79.725 67.6273 79.725C65.4273 79.725 63.4273 80.525 61.9273 82.125C60.3273 83.725 59.5273 85.625 59.5273 87.825C59.5273 90.025 60.3273 92.025 61.9273 93.525C63.5273 95.125 65.4273 95.925 67.7273 95.925C70.0273 95.925 71.9273 95.125 73.4273 93.525C75.0273 91.925 75.8273 90.025 75.8273 87.725C75.8273 85.425 75.0273 83.625 73.3273 82.125ZM62.8273 92.625C61.5273 91.325 60.8273 89.725 60.8273 87.825C60.8273 85.925 61.5273 84.325 62.8273 82.925C64.1273 81.625 65.7273 80.925 67.7273 80.925C69.5273 80.925 71.2273 81.625 72.5273 82.925C73.8273 84.225 74.5273 85.825 74.5273 87.725C74.5273 89.625 73.8273 91.325 72.4273 92.625C71.1273 93.925 69.5273 94.625 67.6273 94.625C65.8273 94.625 64.1273 93.925 62.8273 92.625Z" fill="black"/>
<path d="M85.227 79.725C82.927 79.725 81.027 80.525 79.527 82.125C78.027 83.725 77.127 85.625 77.127 87.825C77.127 90.025 77.927 91.925 79.427 93.525V100.025C79.427 100.425 79.727 100.725 80.127 100.725C80.627 100.725 80.827 100.325 80.827 100.025V94.725C82.127 95.625 83.627 96.025 85.227 96.025C87.527 96.025 89.527 95.225 91.027 93.725C92.627 92.125 93.527 90.325 93.527 88.025C93.527 85.725 92.627 83.825 91.027 82.225C89.427 80.525 87.527 79.725 85.227 79.725ZM80.127 87.125C79.827 87.125 79.427 87.425 79.427 87.925V91.325C78.827 90.325 78.527 89.125 78.527 87.825C78.527 86.025 79.227 84.325 80.527 83.025C81.927 81.625 83.527 81.025 85.427 81.025C87.327 81.025 88.927 81.725 90.327 83.025C91.627 84.325 92.327 85.925 92.327 87.925C92.327 89.825 91.627 91.425 90.227 92.725C88.927 94.025 87.327 94.725 85.427 94.725C83.727 94.725 82.227 94.125 80.927 92.925V87.925C80.827 87.225 80.427 87.125 80.127 87.125Z" fill="black"/>
<path d="M56.7266 102.325V109.525L63.2266 105.825L56.7266 102.325Z" fill="black"/>
<path d="M69.4258 102.325V109.525L62.9258 105.825L69.4258 102.325Z" fill="black"/>
</svg>
