<svg width="124" height="125" viewBox="0 0 124 125" fill="none" xmlns="http://www.w3.org/2000/svg">
<path d="M105.925 105.925C81.725 130.125 42.525 130.125 18.225 105.925C-6.075 81.625 -6.075 42.425 18.225 18.225C42.425 -6.075 81.625 -6.075 105.925 18.225C130.025 42.425 130.025 81.625 105.925 105.925Z" fill="#B3D9F3"/>
<path d="M79.3254 40.0254L78.7254 67.4254C78.7254 67.4254 75.3254 71.6254 61.9254 71.6254C48.7254 71.6254 46.6254 66.8254 46.6254 66.8254L46.1254 41.6254C45.5254 41.7254 46.8254 41.6254 46.1254 41.6254C39.0254 41.7254 32.0254 36.0254 32.0254 28.9254C32.0254 21.8254 37.8254 16.0254 44.9254 16.0254C46.7254 16.0254 48.5254 16.4254 50.1254 17.1254C52.2254 12.9254 56.7254 10.0254 61.7254 10.0254C66.5254 10.0254 70.4254 12.7254 72.7254 16.6254C74.8254 15.0254 77.4254 14.2254 80.3254 14.2254C87.4254 14.2254 93.2254 19.9254 93.2254 27.1254C93.3254 34.2254 86.5254 40.0254 79.3254 40.0254C79.9254 40.0254 78.9254 40.0254 79.3254 40.0254Z" fill="white"/>
<path d="M27.7256 56.7246C27.7256 55.6246 27.6256 54.7246 27.5256 54.2246C27.3256 53.0246 26.7256 51.9246 25.7256 51.0246C24.7256 50.1246 23.6256 49.7246 22.2256 49.7246C20.8256 49.7246 19.5256 50.2246 18.5256 51.2246C17.4256 50.2246 16.2256 49.7246 14.8256 49.7246C13.5256 49.7246 12.2256 50.2246 11.3256 51.0246C10.4256 51.8246 9.72559 52.8246 9.42559 54.2246C9.32559 54.8246 9.22559 55.6246 9.22559 56.7246V65.3246C9.22559 65.8246 9.62559 66.0246 9.92559 66.0246C10.4256 66.0246 10.6256 65.6246 10.6256 65.3246V56.4246C10.6256 54.8246 10.9256 53.5246 11.6256 52.5246C12.3256 51.4246 13.4256 50.9246 14.9256 50.9246C16.0256 50.9246 16.9256 51.3246 17.7256 52.1246C17.0256 53.3246 16.7256 54.6246 16.7256 56.4246V65.2246C16.7256 65.6246 17.0256 65.9246 17.4256 65.9246C17.9256 65.9246 18.1256 65.5246 18.1256 65.2246V56.3246C18.1256 55.0246 18.3256 54.0246 18.6256 53.3246C18.9256 54.1246 19.1256 55.3246 19.1256 56.7246V65.3246C19.1256 65.7246 19.4256 66.0246 19.8256 66.0246C20.3256 66.0246 20.5256 65.6246 20.5256 65.3246V56.1246C20.5256 54.3246 20.2256 53.0246 19.5256 52.0246C20.2256 51.3246 21.1256 50.9246 22.2256 50.9246C23.2256 50.9246 24.1256 51.2246 24.8256 51.8246C25.5256 52.3246 26.0256 53.1246 26.3256 54.1246C26.5256 54.7246 26.5256 55.4246 26.5256 56.4246V65.3246C26.5256 65.7246 26.8256 66.0246 27.2256 66.0246C27.7256 66.0246 27.9256 65.6246 27.9256 65.3246L27.8256 64.8246V56.7246H27.7256Z" fill="black"/>
<path d="M43.9256 52.2252C42.3256 50.6252 40.3256 49.8252 38.0256 49.8252C35.7256 49.8252 33.7256 50.6252 32.1256 52.2252C30.5256 53.8252 29.7256 55.8252 29.7256 58.1252C29.7256 60.4252 30.5256 62.4252 32.2256 64.0252C33.9256 65.6252 35.9256 66.4252 38.2256 66.4252C39.9256 66.4252 41.5256 65.9252 42.8256 65.0252V65.2252C42.8256 65.9252 43.2256 66.1252 43.5256 66.1252C43.8256 66.1252 44.2256 65.8252 44.2256 65.2252V63.9252C45.8256 62.2252 46.6256 60.3252 46.6256 58.1252C46.4256 55.7252 45.5256 53.7252 43.9256 52.2252ZM42.6256 58.2252V63.4252C41.2256 64.6252 39.7256 65.2252 38.0256 65.2252C36.1256 65.2252 34.4256 64.5252 33.1256 63.1252C31.7256 61.8252 31.1256 60.2252 31.1256 58.2252C31.1256 56.2252 31.8256 54.6252 33.2256 53.2252C34.6256 51.8252 36.2256 51.1252 38.2256 51.1252C40.1256 51.1252 41.8256 51.8252 43.1256 53.2252C44.4256 54.6252 45.2256 56.2252 45.2256 58.1252C45.2256 59.5252 44.8256 60.7252 44.1256 61.8252V58.2252C43.9256 57.2252 42.6256 57.2252 42.6256 58.2252Z" fill="black"/>
<path d="M55.4256 66.4248C57.3256 66.4248 59.1256 65.8248 60.7256 64.5248C61.1256 64.2248 61.4256 64.0248 61.6256 63.7248H61.7256V63.6248C61.8256 63.5248 61.8256 63.4248 61.8256 63.2248C61.8256 62.9248 61.6256 62.6248 61.2256 62.6248H60.8256L60.7256 62.8248V63.0248C60.0256 63.6248 59.2256 64.2248 58.4256 64.6248C57.5256 65.0248 56.5256 65.3248 55.6256 65.3248C53.6256 65.3248 52.0256 64.6248 50.7256 63.2248C49.3256 61.8248 48.6256 60.2248 48.6256 58.2248C48.6256 56.3248 49.3256 54.6248 50.7256 53.3248C52.0256 51.9248 53.6256 51.3248 55.6256 51.3248C57.5256 51.3248 59.2256 52.0248 60.6256 53.4248L60.9256 53.6248H61.3256L61.4256 53.5248C61.6256 53.4248 61.7256 53.2248 61.7256 53.0248V52.8248L61.6256 52.7248C61.6256 52.7248 61.6256 52.6248 61.5256 52.6248C61.4256 52.5248 61.4256 52.4248 61.3256 52.4248C59.8256 50.8248 57.8256 49.9248 55.4256 49.9248C53.1256 49.9248 51.1256 50.7248 49.5256 52.3248C47.9256 53.9248 47.1256 55.9248 47.1256 58.2248C47.1256 60.4248 47.9256 62.4248 49.5256 64.1248C51.2256 65.6248 53.2256 66.4248 55.4256 66.4248Z" fill="black"/>
<path d="M76.0256 52.2252C74.4256 50.6252 72.4256 49.8252 70.1256 49.8252C67.8256 49.8252 65.8256 50.6252 64.2256 52.2252C62.6256 53.8252 61.8256 55.8252 61.8256 58.1252C61.8256 60.4252 62.6256 62.4252 64.2256 64.0252C65.9256 65.6252 67.9256 66.4252 70.2256 66.4252C71.9256 66.4252 73.5256 65.9252 74.8256 65.0252V65.2252C74.8256 65.9252 75.2256 66.1252 75.5256 66.1252C75.8256 66.1252 76.2256 65.8252 76.2256 65.2252V63.9252C77.8256 62.2252 78.6256 60.3252 78.6256 58.1252C78.5256 55.6252 77.7256 53.7252 76.0256 52.2252ZM74.7256 58.2252V63.4252C73.3256 64.6252 71.8256 65.2252 70.1256 65.2252C68.2256 65.2252 66.5256 64.5252 65.1256 63.1252C63.7256 61.8252 63.1256 60.2252 63.1256 58.2252C63.1256 56.2252 63.8256 54.6252 65.2256 53.2252C66.6256 51.8252 68.2256 51.1252 70.2256 51.1252C72.1256 51.1252 73.8256 51.8252 75.1256 53.2252C76.5256 54.6252 77.2256 56.2252 77.2256 58.1252C77.2256 59.5252 76.8256 60.8252 76.1256 61.9252V58.3252C76.0256 57.2252 74.7256 57.2252 74.7256 58.2252Z" fill="black"/>
<path d="M80.6255 66.1254C81.1255 66.1254 81.3255 65.7254 81.3255 65.4254V58.9254C81.3255 57.2254 81.4255 56.2254 81.6255 55.5254C81.9255 54.4254 82.5255 53.5254 83.3255 52.8254C84.1255 52.1254 85.0255 51.7254 86.0255 51.4254C86.5255 51.4254 86.7255 51.0254 86.7255 50.7254C86.7255 50.2254 86.4255 50.1254 86.2255 50.0254H86.1255H86.0255C85.5255 50.0254 84.9255 50.2254 84.2255 50.6254C83.0255 51.2254 82.0255 52.0254 81.3255 53.1254C81.3255 52.5254 81.3255 51.7254 81.3255 50.8254C81.3255 49.8254 79.9255 49.8254 79.9255 50.8254V65.4254C79.9255 65.8254 80.2255 66.1254 80.6255 66.1254Z" fill="black"/>
<path d="M101.226 52.2252C99.6256 50.6252 97.6256 49.8252 95.3256 49.8252C93.0256 49.8252 91.0256 50.6252 89.4256 52.2252C87.8256 53.8252 87.0256 55.8252 87.0256 58.1252C87.0256 60.4252 87.8256 62.4252 89.4256 64.0252C91.1256 65.6252 93.1256 66.4252 95.4256 66.4252C97.7256 66.4252 99.7256 65.6252 101.326 63.9252C102.926 62.2252 103.726 60.2252 103.726 57.9252C103.726 55.7252 102.926 53.7252 101.226 52.2252ZM95.3256 51.1252C97.2256 51.1252 98.9256 51.8252 100.226 53.2252C101.626 54.6252 102.326 56.2252 102.326 58.1252C102.326 60.1252 101.626 61.8252 100.126 63.1252C98.8256 64.5252 97.2256 65.1252 95.2256 65.1252C93.3256 65.1252 91.6256 64.4252 90.3256 63.0252C88.9256 61.6252 88.2256 60.0252 88.2256 58.1252C88.2256 56.1252 88.9256 54.5252 90.3256 53.1252C91.6256 51.7252 93.3256 51.1252 95.3256 51.1252Z" fill="black"/>
<path d="M116.726 54.025C116.526 52.825 115.926 51.825 114.826 50.925C113.826 50.125 112.626 49.625 111.326 49.625C110.326 49.625 109.426 49.825 108.626 50.325C108.026 50.725 107.426 51.125 107.026 51.725V50.725C107.026 49.725 105.626 49.725 105.626 50.725V65.325C105.626 65.825 106.026 66.025 106.326 66.025C106.826 66.025 107.026 65.625 107.026 65.325V57.025C107.026 56.125 107.026 55.325 107.126 54.925C107.326 53.725 107.726 52.825 108.426 52.125C109.226 51.425 110.226 51.025 111.226 51.025C112.026 51.025 112.826 51.225 113.426 51.625C114.326 52.125 114.926 52.925 115.126 53.925C115.326 54.525 115.326 55.625 115.326 57.025V65.325C115.326 65.725 115.626 66.025 116.026 66.025C116.226 66.025 116.426 65.925 116.526 65.825H116.826V56.325C116.926 55.425 116.826 54.625 116.726 54.025Z" fill="black"/>
<path d="M40.5256 85.3252C39.8256 85.3252 39.7256 85.7252 39.7256 86.0252C39.7256 86.5252 40.1256 86.7252 40.4256 86.7252C41.2256 86.7252 41.8256 86.9252 42.5256 87.3252C43.8256 88.0252 44.5256 89.2252 44.5256 90.7252C44.5256 91.8252 44.1256 92.7252 43.3256 93.5252C42.5256 94.3252 41.6256 94.7252 40.5256 94.7252C38.9256 94.7252 37.8256 94.0252 36.9256 92.6252C36.6256 92.2252 36.4256 91.6252 36.4256 90.9252C36.4256 90.4252 36.1256 90.1252 35.7256 90.1252C35.2256 90.1252 35.0256 90.5252 35.0256 90.8252C35.0256 92.2252 35.6256 93.5252 36.7256 94.4252C37.7256 95.4252 39.0256 95.9252 40.4256 95.9252C41.9256 95.9252 43.2256 95.4252 44.2256 94.3252C45.2256 93.3252 45.8256 92.0252 45.8256 90.5252C45.8256 89.0252 45.3256 87.8252 44.3256 86.8252C43.3256 85.9252 42.0256 85.3252 40.5256 85.3252Z" fill="black"/>
<path d="M40.2256 81.1252C41.5256 81.1252 42.4256 81.6252 43.0256 82.7252C43.1256 82.9252 43.3256 83.3252 43.4256 83.7252C43.4256 84.2252 43.7256 84.5252 44.1256 84.5252C44.5256 84.5252 44.8256 84.2252 44.8256 83.8252C44.8256 82.6252 44.2256 81.6252 43.2256 81.0252C42.3256 80.2252 41.3256 79.8252 40.1256 79.8252C38.9256 79.8252 37.8256 80.2252 36.9256 81.1252C36.1256 82.1252 35.6256 83.1252 35.6256 84.3252C35.6256 85.5252 36.0256 86.6252 36.9256 87.5252C37.7256 88.4252 38.8256 88.9252 40.0256 88.9252C40.5256 88.9252 40.8256 88.6252 40.8256 88.2252C40.8256 87.8252 40.5256 87.5252 40.1256 87.5252C39.2256 87.5252 38.5256 87.2252 37.9256 86.6252C37.3256 86.0252 37.0256 85.2252 37.0256 84.3252C37.0256 83.4252 37.3256 82.6252 37.9256 82.0252C38.7256 81.4252 39.4256 81.1252 40.2256 81.1252Z" fill="black"/>
<path d="M57.9256 86.5252C57.9256 85.4252 57.8256 84.6252 57.7256 84.1252C57.4256 82.8252 56.8256 81.8252 55.9256 81.1252C54.9256 80.2252 53.9256 79.8252 52.6256 79.8252C51.7256 79.8252 50.8256 80.0252 50.0256 80.5252C49.3256 80.8252 48.8256 81.3252 48.4256 81.8252V75.8252C48.4256 74.8252 47.0256 74.8252 47.0256 75.8252V94.9252C47.0256 95.4252 47.4256 95.6252 47.7256 95.6252C48.2256 95.6252 48.4256 95.2252 48.4256 94.9252V86.9252C48.4256 86.3252 48.4256 85.8252 48.5256 85.4252C48.5256 85.1252 48.5256 84.9252 48.5256 84.8252C48.7256 83.7252 49.1256 82.8252 49.8256 82.1252C50.6256 81.4252 51.4256 81.1252 52.6256 81.1252C53.4256 81.1252 54.2256 81.3252 54.8256 81.7252C55.7256 82.3252 56.2256 83.0252 56.4256 83.9252C56.6256 84.5252 56.6256 85.5252 56.6256 86.9252V94.9252C56.6256 95.3252 56.9256 95.6252 57.3256 95.6252C57.8256 95.6252 58.0256 95.2252 58.0256 94.9252L57.9256 94.4252V86.5252Z" fill="black"/>
<path d="M73.3256 82.1246C71.7256 80.5246 69.8256 79.7246 67.6256 79.7246C65.4256 79.7246 63.4256 80.5246 61.9256 82.1246C60.3256 83.7246 59.5256 85.6246 59.5256 87.8246C59.5256 90.0246 60.3256 92.0246 61.9256 93.5246C63.5256 95.1246 65.4256 95.9246 67.7256 95.9246C70.0256 95.9246 71.9256 95.1246 73.4256 93.5246C75.0256 91.9246 75.8256 90.0246 75.8256 87.7246C75.8256 85.4246 75.0256 83.6246 73.3256 82.1246ZM62.8256 92.6246C61.5256 91.3246 60.8256 89.7246 60.8256 87.8246C60.8256 85.9246 61.5256 84.3246 62.8256 82.9246C64.1256 81.6246 65.7256 80.9246 67.7256 80.9246C69.5256 80.9246 71.2256 81.6246 72.5256 82.9246C73.8256 84.2246 74.5256 85.8246 74.5256 87.7246C74.5256 89.6246 73.8256 91.3246 72.4256 92.6246C71.1256 93.9246 69.5256 94.6246 67.6256 94.6246C65.8256 94.6246 64.1256 93.9246 62.8256 92.6246Z" fill="black"/>
<path d="M85.2256 79.7246C82.9256 79.7246 81.0256 80.5246 79.5256 82.1246C78.0256 83.7246 77.1256 85.6246 77.1256 87.8246C77.1256 90.0246 77.9256 91.9246 79.4256 93.5246V100.025C79.4256 100.425 79.7256 100.725 80.1256 100.725C80.6256 100.725 80.8256 100.325 80.8256 100.025V94.7246C82.1256 95.6246 83.6256 96.0246 85.2256 96.0246C87.5256 96.0246 89.5256 95.2246 91.0256 93.7246C92.6256 92.1246 93.5256 90.3246 93.5256 88.0246C93.5256 85.7246 92.6256 83.8246 91.0256 82.2246C89.4256 80.5246 87.5256 79.7246 85.2256 79.7246ZM80.1256 87.1246C79.8256 87.1246 79.4256 87.4246 79.4256 87.9246V91.3246C78.8256 90.3246 78.5256 89.1246 78.5256 87.8246C78.5256 86.0246 79.2256 84.3246 80.5256 83.0246C81.9256 81.6246 83.5256 81.0246 85.4256 81.0246C87.3256 81.0246 88.9256 81.7246 90.3256 83.0246C91.6256 84.3246 92.3256 85.9246 92.3256 87.9246C92.3256 89.8246 91.6256 91.4246 90.2256 92.7246C88.9256 94.0246 87.3256 94.7246 85.4256 94.7246C83.7256 94.7246 82.2256 94.1246 80.9256 92.9246V87.9246C80.8256 87.2246 80.4256 87.1246 80.1256 87.1246Z" fill="black"/>
<path d="M56.7256 102.324V109.524L63.2256 105.824L56.7256 102.324Z" fill="black"/>
<path d="M69.4258 102.324V109.524L62.9258 105.824L69.4258 102.324Z" fill="black"/>
</svg>
