<svg width="13" height="16" viewBox="0 0 13 16" fill="none" xmlns="http://www.w3.org/2000/svg">
<g id="Group">
<g id="Group_2">
<g id="Group 3">
<path id="Vector" d="M6.11772 8.47056C8.45348 8.47056 10.353 6.57103 10.353 4.23528C10.353 1.89952 8.45348 0 6.11772 0C3.78197 0 1.88245 1.89952 1.88245 4.23528C1.88245 6.57103 3.78197 8.47056 6.11772 8.47056ZM6.11772 2.11764C7.2856 2.11764 8.23536 3.0674 8.23536 4.23528C8.23536 5.40316 7.2856 6.35292 6.11772 6.35292C4.94985 6.35292 4.00009 5.40316 4.00009 4.23528C4.00009 3.0674 4.94985 2.11764 6.11772 2.11764Z" fill="black"/>
<path id="Vector_2" d="M11.9156 7.82485C11.4882 7.43078 10.7973 7.43078 10.3699 7.82485C8.0262 9.9857 4.2111 9.9857 1.86629 7.82485C1.43886 7.43078 0.74799 7.43078 0.320567 7.82485C-0.106856 8.21892 -0.106856 8.85589 0.320567 9.25097C1.68045 10.5047 3.40435 11.2193 5.18182 11.4058L2.06524 14.2792C1.63782 14.6733 1.63782 15.3102 2.06524 15.7043C2.49266 16.0984 3.18353 16.0984 3.61096 15.7043L6.11756 13.3933L8.62416 15.7043C8.83732 15.9008 9.11717 15.9996 9.39701 15.9996C9.67686 15.9996 9.95671 15.9008 10.1699 15.7043C10.5973 15.3102 10.5973 14.6733 10.1699 14.2792L7.0533 11.4058C8.83076 11.2193 10.5547 10.5047 11.9145 9.25097C12.342 8.8569 12.342 8.21892 11.9156 7.82485Z" fill="black"/>
</g>
</g>
</g>
</svg>
